<svg xmlns="http://www.w3.org/2000/svg" style="display:none"><symbol id="xy-phone-end" viewBox="0 0 24 24" fill="none" stroke="currentColor" stroke-width="1.65" stroke-linecap="round" stroke-linejoin="round"><path d="M3 10.5c5-5.2 13-5.2 18 0v4c0 .8-.6 1.3-1.4 1.1l-4-1c-.6-.2-1-.6-1-1.2v-2a10 10 0 0 0-5.2 0v2c0 .6-.4 1-1 1.2l-4 1C3.6 15.8 3 15.3 3 14.5Z" fill="currentColor" stroke="none"/></symbol><symbol id="xy-camera-flip" viewBox="0 0 24 24" fill="none" stroke="currentColor" stroke-width="1.65" stroke-linecap="round" stroke-linejoin="round"><path d="M5 8h3l1-3h6l1 3h3v9H5Z"/><circle cx="12" cy="12" r="3"/><path d="M3 15c-2 4 3 6 8 6m10-6c2 4-3 6-8 6m-4-2 2 2-2 2"/></symbol><symbol id="xy-video-camera" viewBox="0 0 24 24" fill="none" stroke="currentColor" stroke-width="1.65" stroke-linecap="round" stroke-linejoin="round"><rect x="3" y="6" width="12" height="12" rx="3" fill="currentColor" stroke="none"/><path d="m17 9 4-2v10l-4-2Z" fill="currentColor" stroke="none"/></symbol><symbol id="xy-arrow-up" viewBox="0 0 24 24" fill="none" stroke="currentColor" stroke-width="1.65" stroke-linecap="round" stroke-linejoin="round"><path d="M12 20V4m-6 6 6-6 6 6"/></symbol><symbol id="xy-arrow-down" viewBox="0 0 24 24" fill="none" stroke="currentColor" stroke-width="1.65" stroke-linecap="round" stroke-linejoin="round"><path d="M12 4v16m-6-6 6 6 6-6"/></symbol><symbol id="xy-arrow-left" viewBox="0 0 24 24" fill="none" stroke="currentColor" stroke-width="1.65" stroke-linecap="round" stroke-linejoin="round"><path d="m14.5 4.5-7.5 7.5 7.5 7.5"/></symbol><symbol id="xy-arrow-right" viewBox="0 0 24 24" fill="none" stroke="currentColor" stroke-width="1.65" stroke-linecap="round" stroke-linejoin="round"><path d="m9.5 4.5 7.5 7.5-7.5 7.5"/></symbol><symbol id="xy-chevron-down" viewBox="0 0 24 24" fill="none" stroke="currentColor" stroke-width="1.65" stroke-linecap="round" stroke-linejoin="round"><path d="m6.5 9.5 5.5 5 5.5-5"/></symbol><symbol id="xy-chevron-up" viewBox="0 0 24 24" fill="none" stroke="currentColor" stroke-width="1.65" stroke-linecap="round" stroke-linejoin="round"><path d="m6.5 14.5 5.5-5 5.5 5"/></symbol><symbol id="xy-chevron-left" viewBox="0 0 24 24" fill="none" stroke="currentColor" stroke-width="1.65" stroke-linecap="round" stroke-linejoin="round"><path d="m14.5 6.5-5 5.5 5 5.5"/></symbol><symbol id="xy-chevron-right" viewBox="0 0 24 24" fill="none" stroke="currentColor" stroke-width="1.65" stroke-linecap="round" stroke-linejoin="round"><path d="m9.5 6.5 5 5.5-5 5.5"/></symbol><symbol id="xy-close" viewBox="0 0 24 24" fill="none" stroke="currentColor" stroke-width="1.65" stroke-linecap="round" stroke-linejoin="round"><path d="m5.5 5.5 13 13m0-13-13 13"/></symbol><symbol id="xy-plus" viewBox="0 0 24 24" fill="none" stroke="currentColor" stroke-width="1.65" stroke-linecap="round" stroke-linejoin="round"><path d="M12 5v14M5 12h14"/></symbol><symbol id="xy-minus" viewBox="0 0 24 24" fill="none" stroke="currentColor" stroke-width="1.65" stroke-linecap="round" stroke-linejoin="round"><path d="M5 12h14"/></symbol><symbol id="xy-more" viewBox="0 0 24 24" fill="none" stroke="currentColor" stroke-width="1.65" stroke-linecap="round" stroke-linejoin="round"><circle cx="5" cy="12" r="1"/><circle cx="12" cy="12" r="1"/><circle cx="19" cy="12" r="1"/></symbol><symbol id="xy-grid-four" viewBox="0 0 24 24" fill="none" stroke="currentColor" stroke-width="1.65" stroke-linecap="round" stroke-linejoin="round"><circle cx="7" cy="6.5" r="1.5"/><circle cx="17" cy="6.5" r="1.5"/><circle cx="7" cy="17.5" r="1.5"/><circle cx="17" cy="17.5" r="1.5"/></symbol><symbol id="xy-menu" viewBox="0 0 24 24" fill="none" stroke="currentColor" stroke-width="1.65" stroke-linecap="round" stroke-linejoin="round"><path d="M4 6h16M4 12h16M4 18h16"/></symbol><symbol id="xy-expand" viewBox="0 0 24 24" fill="none" stroke="currentColor" stroke-width="1.65" stroke-linecap="round" stroke-linejoin="round"><path d="M9 4H4v5m11-5h5v5M4 15v5h5m11-5v5h-5"/></symbol><symbol id="xy-collapse" viewBox="0 0 24 24" fill="none" stroke="currentColor" stroke-width="1.65" stroke-linecap="round" stroke-linejoin="round"><path d="M4 9h5V4m11 5h-5V4M4 15h5v5m11-5h-5v5"/></symbol><symbol id="xy-undo" viewBox="0 0 24 24" fill="none" stroke="currentColor" stroke-width="1.65" stroke-linecap="round" stroke-linejoin="round"><path d="M8 5 3.5 9 8 13M4 9h10.5a5.5 5.5 0 0 1 0 11H7"/></symbol><symbol id="xy-redo" viewBox="0 0 24 24" fill="none" stroke="currentColor" stroke-width="1.65" stroke-linecap="round" stroke-linejoin="round"><path d="m16 5 4.5 4-4.5 4m4-4H9.5a5.5 5.5 0 0 0 0 11H17"/></symbol><symbol id="xy-keyboard" viewBox="0 0 24 24" fill="none" stroke="currentColor" stroke-width="1.65" stroke-linecap="round" stroke-linejoin="round"><rect x="3" y="6" width="18" height="13" rx="3"/><path d="M6.5 10h.01m3.5 0h.01m3.5 0h.01m3.5 0h.01M6.5 13h.01m3.5 0h.01m3.5 0h.01m3.5 0h.01M8 16h8"/></symbol><symbol id="xy-microphone" viewBox="0 0 24 24" fill="none" stroke="currentColor" stroke-width="1.65" stroke-linecap="round" stroke-linejoin="round"><rect x="9" y="3" width="6" height="12" rx="3"/><path d="M5.5 11v1a6.5 6.5 0 0 0 13 0v-1M12 18.5V22"/></symbol><symbol id="xy-microphone-off" viewBox="0 0 24 24" fill="none" stroke="currentColor" stroke-width="1.65" stroke-linecap="round" stroke-linejoin="round"><path d="M9 7V6a3 3 0 0 1 6 0v5M9 10v2a3 3 0 0 0 4.5 2.6M5.5 11v1a6.5 6.5 0 0 0 11.2 4.5M18.5 11v1a6.5 6.5 0 0 1-.3 2M12 18.5V22M3 3l18 18"/></symbol><symbol id="xy-camera" viewBox="0 0 24 24" fill="none" stroke="currentColor" stroke-width="1.65" stroke-linecap="round" stroke-linejoin="round"><path d="M8 6 9.5 3.5h5L16 6h3.5a2 2 0 0 1 2 2v10a2 2 0 0 1-2 2h-15a2 2 0 0 1-2-2V8a2 2 0 0 1 2-2Z"/><circle cx="12" cy="12.5" r="4"/></symbol><symbol id="xy-camera-off" viewBox="0 0 24 24" fill="none" stroke="currentColor" stroke-width="1.65" stroke-linecap="round" stroke-linejoin="round"><path d="M8.5 4.5h6L16 7h3.5a2 2 0 0 1 2 2v7M18 20H4.5a2 2 0 0 1-2-2V9a2 2 0 0 1 2-2H6M9.2 10.2a4 4 0 0 0 5.6 5.6M3 3l18 18"/></symbol><symbol id="xy-headphones" viewBox="0 0 24 24" fill="none" stroke="currentColor" stroke-width="1.65" stroke-linecap="round" stroke-linejoin="round"><path d="M4 14V11a8 8 0 0 1 16 0v3"/><rect x="3" y="12" width="4" height="8" rx="2"/><rect x="17" y="12" width="4" height="8" rx="2"/></symbol><symbol id="xy-volume" viewBox="0 0 24 24" fill="none" stroke="currentColor" stroke-width="1.65" stroke-linecap="round" stroke-linejoin="round"><path d="M4 9h4l5-4v14l-5-4H4ZM17 8a6 6 0 0 1 0 8m2.5-10.5a9.5 9.5 0 0 1 0 13"/></symbol><symbol id="xy-volume-off" viewBox="0 0 24 24" fill="none" stroke="currentColor" stroke-width="1.65" stroke-linecap="round" stroke-linejoin="round"><path d="M4 9h4l5-4v14l-5-4H4Zm13 1 5 5m0-5-5 5"/></symbol><symbol id="xy-audio-wave" viewBox="0 0 24 24" fill="none" stroke="currentColor" stroke-width="1.65" stroke-linecap="round" stroke-linejoin="round"><path d="M3 10v4m3-8v12m3-14v16m3-12v8m3-11v14m3-11v8m3-6v4"/></symbol><symbol id="xy-send" viewBox="0 0 24 24" fill="none" stroke="currentColor" stroke-width="1.65" stroke-linecap="round" stroke-linejoin="round"><circle cx="12" cy="12" r="9"/><path d="M12 17V7m-4 4 4-4 4 4"/></symbol><symbol id="xy-attach" viewBox="0 0 24 24" fill="none" stroke="currentColor" stroke-width="1.65" stroke-linecap="round" stroke-linejoin="round"><path d="m8 13 6.5-6.5a2.1 2.1 0 0 1 3 3L9 18a4 4 0 0 1-5.7-5.7l9-9a5.8 5.8 0 0 1 8.2 8.2l-8.2 8.2"/></symbol><symbol id="xy-image" viewBox="0 0 24 24" fill="none" stroke="currentColor" stroke-width="1.65" stroke-linecap="round" stroke-linejoin="round"><rect x="3" y="3" width="18" height="18" rx="3"/><circle cx="8" cy="8" r="1.5"/><path d="m4 17 5-5 4 4 3-3 5 5"/></symbol><symbol id="xy-scan" viewBox="0 0 24 24" fill="none" stroke="currentColor" stroke-width="1.65" stroke-linecap="round" stroke-linejoin="round"><path d="M8 3H5a2 2 0 0 0-2 2v3m13-5h3a2 2 0 0 1 2 2v3M3 16v3a2 2 0 0 0 2 2h3m8 0h3a2 2 0 0 0 2-2v-3M3 12h18"/></symbol><symbol id="xy-eye" viewBox="0 0 24 24" fill="none" stroke="currentColor" stroke-width="1.65" stroke-linecap="round" stroke-linejoin="round"><path d="M2 12s3.5-7 10-7 10 7 10 7-3.5 7-10 7S2 12 2 12Z"/><circle cx="12" cy="12" r="3"/></symbol><symbol id="xy-sparkles" viewBox="0 0 24 24" fill="none" stroke="currentColor" stroke-width="1.65" stroke-linecap="round" stroke-linejoin="round"><path d="M12 3c.8 5.5 3.5 8.2 9 9-5.5.8-8.2 3.5-9 9-.8-5.5-3.5-8.2-9-9 5.5-.8 8.2-3.5 9-9ZM20 2v4m-2-2h4"/></symbol><symbol id="xy-summarize" viewBox="0 0 24 24" fill="none" stroke="currentColor" stroke-width="1.65" stroke-linecap="round" stroke-linejoin="round"><path d="M12 4h4a3 3 0 0 1 3 3v12a2 2 0 0 1-2 2H7a2 2 0 0 1-2-2v-8M9 11h6m-6 4h6M6 2c.4 2.3 1.7 3.6 4 4-2.3.4-3.6 1.7-4 4-.4-2.3-1.7-3.6-4-4 2.3-.4 3.6-1.7 4-4Z"/></symbol><symbol id="xy-proofread" viewBox="0 0 24 24" fill="none" stroke="currentColor" stroke-width="1.65" stroke-linecap="round" stroke-linejoin="round"><path d="M19 10V5a2 2 0 0 0-2-2H6a2 2 0 0 0-2 2v14a2 2 0 0 0 2 2h7M8 7h7M8 11h5m1 6 3 3 5-6"/></symbol><symbol id="xy-rewrite" viewBox="0 0 24 24" fill="none" stroke="currentColor" stroke-width="1.65" stroke-linecap="round" stroke-linejoin="round"><path d="m7 17 9-9 3 3-9 9-4 1ZM16 8l1.5-1.5a2.1 2.1 0 0 1 3 3L19 11M6 2c.3 2.1 1.9 3.7 4 4-2.1.3-3.7 1.9-4 4-.3-2.1-1.9-3.7-4-4 2.1-.3 3.7-1.9 4-4ZM19 17v5m-2.5-2.5h5"/></symbol><symbol id="xy-tone" viewBox="0 0 24 24" fill="none" stroke="currentColor" stroke-width="1.65" stroke-linecap="round" stroke-linejoin="round"><path d="M4.6 5.5a9 9 0 1 0 14.8 0M8 9v6m4-8v10m4-7v4M9 3h6"/></symbol><symbol id="xy-expand-text" viewBox="0 0 24 24" fill="none" stroke="currentColor" stroke-width="1.65" stroke-linecap="round" stroke-linejoin="round"><rect x="8" y="6" width="12" height="15" rx="2"/><path d="M15 3H6a2 2 0 0 0-2 2v12M12 10h4m-4 4h4m-4 3h4"/></symbol><symbol id="xy-paragraph" viewBox="0 0 24 24" fill="none" stroke="currentColor" stroke-width="1.65" stroke-linecap="round" stroke-linejoin="round"><path d="m3 6 1.5 1.5L7 4m3 2h11M3 12l1.5 1.5L7 10m3 2h11M3 18l1.5 1.5L7 16m3 2h11"/></symbol><symbol id="xy-meeting" viewBox="0 0 24 24" fill="none" stroke="currentColor" stroke-width="1.65" stroke-linecap="round" stroke-linejoin="round"><path d="M8 5V4a2 2 0 0 1 2-2h4a2 2 0 0 1 2 2v1M3 10h18"/><rect x="3" y="5" width="18" height="16" rx="2.5"/><path d="M8 14h8m-8 4h6"/></symbol><symbol id="xy-mindmap" viewBox="0 0 24 24" fill="none" stroke="currentColor" stroke-width="1.65" stroke-linecap="round" stroke-linejoin="round"><rect x="2" y="9" width="7" height="6" rx="2"/><rect x="15" y="2" width="7" height="5" rx="1.5"/><rect x="15" y="17" width="7" height="5" rx="1.5"/><path d="M9 12h3V4.5h3M12 12v7.5h3"/></symbol><symbol id="xy-translate" viewBox="0 0 24 24" fill="none" stroke="currentColor" stroke-width="1.65" stroke-linecap="round" stroke-linejoin="round"><path d="M3 5h12M9 2v3m-3 3c1.5 5 4 7 8 8m-2-11c-.7 5.5-3.5 9-8.5 12M13 21l4-11 4 11m-6.5-4h5"/></symbol><symbol id="xy-circle-select" viewBox="0 0 24 24" fill="none" stroke="currentColor" stroke-width="1.65" stroke-linecap="round" stroke-linejoin="round"><path d="M18.6 17.6c3.2-2.4 3.5-7.2 1.2-10.5S13 2.8 8 4.2 1.4 10 3.7 14.5s7.6 6.5 11.2 3.7C19.5 14.6 13.6 13 12 16c-1.6 3 1 6 4.5 5"/></symbol><symbol id="xy-screen-analyze" viewBox="0 0 24 24" fill="none" stroke="currentColor" stroke-width="1.65" stroke-linecap="round" stroke-linejoin="round"><rect x="3" y="3" width="18" height="15" rx="3"/><path d="M8 22h8m-4-4v4M7 10s2-3 5-3 5 3 5 3-2 3-5 3-5-3-5-3Z"/><circle cx="12" cy="10" r="1"/></symbol><symbol id="xy-bookmark" viewBox="0 0 24 24" fill="none" stroke="currentColor" stroke-width="1.65" stroke-linecap="round" stroke-linejoin="round"><path d="M6 21V5a2 2 0 0 1 2-2h8a2 2 0 0 1 2 2v16l-6-4Z"/></symbol><symbol id="xy-file" viewBox="0 0 24 24" fill="none" stroke="currentColor" stroke-width="1.65" stroke-linecap="round" stroke-linejoin="round"><path d="M14 3H6a2 2 0 0 0-2 2v14a2 2 0 0 0 2 2h12a2 2 0 0 0 2-2V9ZM14 3v6h6M8 13h8m-8 4h6"/></symbol><symbol id="xy-clipboard" viewBox="0 0 24 24" fill="none" stroke="currentColor" stroke-width="1.65" stroke-linecap="round" stroke-linejoin="round"><path d="M8 5H6a2 2 0 0 0-2 2v12a2 2 0 0 0 2 2h12a2 2 0 0 0 2-2V7a2 2 0 0 0-2-2h-2"/><rect x="8" y="2" width="8" height="5" rx="2"/></symbol><symbol id="xy-copy" viewBox="0 0 24 24" fill="none" stroke="currentColor" stroke-width="1.65" stroke-linecap="round" stroke-linejoin="round"><rect x="8" y="8" width="12" height="13" rx="2"/><path d="M15 4V3H5a2 2 0 0 0-2 2v11h1"/></symbol><symbol id="xy-book" viewBox="0 0 24 24" fill="none" stroke="currentColor" stroke-width="1.65" stroke-linecap="round" stroke-linejoin="round"><path d="M12 5c-3-2-6-2-10-1v15c4-1 7-1 10 1 3-2 6-2 10-1V4c-4-1-7-1-10 1Zm0 0v15"/></symbol><symbol id="xy-folder" viewBox="0 0 24 24" fill="none" stroke="currentColor" stroke-width="1.65" stroke-linecap="round" stroke-linejoin="round"><path d="M3 7V5a2 2 0 0 1 2-2h4l3 3h7a2 2 0 0 1 2 2v11a2 2 0 0 1-2 2H5a2 2 0 0 1-2-2Zm0 1h18"/></symbol><symbol id="xy-calendar" viewBox="0 0 24 24" fill="none" stroke="currentColor" stroke-width="1.65" stroke-linecap="round" stroke-linejoin="round"><rect x="3" y="5" width="18" height="16" rx="3"/><path d="M7 2v6m10-6v6M3 10h18M7 14h2m6 0h2m-10 4h2"/></symbol><symbol id="xy-clock" viewBox="0 0 24 24" fill="none" stroke="currentColor" stroke-width="1.65" stroke-linecap="round" stroke-linejoin="round"><circle cx="12" cy="12" r="9"/><path d="M12 6v6l4 3"/></symbol><symbol id="xy-map-pin" viewBox="0 0 24 24" fill="none" stroke="currentColor" stroke-width="1.65" stroke-linecap="round" stroke-linejoin="round"><path d="M12 22s8-8 8-13a8 8 0 0 0-16 0c0 5 8 13 8 13Z"/><circle cx="12" cy="9" r="3"/></symbol><symbol id="xy-search" viewBox="0 0 24 24" fill="none" stroke="currentColor" stroke-width="1.65" stroke-linecap="round" stroke-linejoin="round"><circle cx="10.5" cy="10.5" r="7"/><path d="m16 16 5 5"/></symbol><symbol id="xy-edit" viewBox="0 0 24 24" fill="none" stroke="currentColor" stroke-width="1.65" stroke-linecap="round" stroke-linejoin="round"><path d="m4 15 12-12a2.1 2.1 0 0 1 3 3L7 18l-4 1Zm10-10 3 3M3 22h18"/></symbol><symbol id="xy-check" viewBox="0 0 24 24" fill="none" stroke="currentColor" stroke-width="1.65" stroke-linecap="round" stroke-linejoin="round"><path d="m3 12 6 6L21 5"/></symbol><symbol id="xy-list-checks" viewBox="0 0 24 24" fill="none" stroke="currentColor" stroke-width="1.65" stroke-linecap="round" stroke-linejoin="round"><path d="m3 6 2 2 3-4m3 2h10M3 12l2 2 3-4m3 2h10M3 18l2 2 3-4m3 2h10"/></symbol><symbol id="xy-heart" viewBox="0 0 24 24" fill="none" stroke="currentColor" stroke-width="1.65" stroke-linecap="round" stroke-linejoin="round"><path d="M12 21 4 13C-2 6 7-1 12 6c5-7 14 0 8 7Z"/></symbol><symbol id="xy-star" viewBox="0 0 24 24" fill="none" stroke="currentColor" stroke-width="1.65" stroke-linecap="round" stroke-linejoin="round"><path d="m12 2 3.1 6.5 7.1 1-5.1 5 .9 7-6-3.2L6 21.5l.9-7-5.1-5 7.1-1Z"/></symbol><symbol id="xy-share" viewBox="0 0 24 24" fill="none" stroke="currentColor" stroke-width="1.65" stroke-linecap="round" stroke-linejoin="round"><path d="M15 8V3l7 7-7 7v-5c-6 0-9 3-11 7 0-7 3-11 11-11Z"/></symbol><symbol id="xy-refresh" viewBox="0 0 24 24" fill="none" stroke="currentColor" stroke-width="1.65" stroke-linecap="round" stroke-linejoin="round"><path d="M20 8a8.5 8.5 0 0 0-14.5-3L3 8m0-5v5h5m-4 8a8.5 8.5 0 0 0 14.5 3L21 16m0 5v-5h-5"/></symbol><symbol id="xy-settings" viewBox="0 0 24 24" fill="none" stroke="currentColor" stroke-width="1.65" stroke-linecap="round" stroke-linejoin="round"><path d="M10 2h4l.8 3 2 .9 2.7-.9 2 3.5-2 2.1v2.3l2 2.1-2 3.5-2.7-.9-2 .9-.8 3h-4l-.8-3-2-.9-2.7.9-2-3.5 2-2.1v-2.3l-2-2.1 2-3.5 2.7.9 2-.9Z"/><circle cx="12" cy="11.85" r="3"/></symbol><symbol id="xy-download" viewBox="0 0 24 24" fill="none" stroke="currentColor" stroke-width="1.65" stroke-linecap="round" stroke-linejoin="round"><path d="M12 2v13m-5-5 5 5 5-5M3 15v5a1 1 0 0 0 1 1h16a1 1 0 0 0 1-1v-5"/></symbol><symbol id="xy-upload" viewBox="0 0 24 24" fill="none" stroke="currentColor" stroke-width="1.65" stroke-linecap="round" stroke-linejoin="round"><path d="M12 15V2M7 7l5-5 5 5M3 15v5a1 1 0 0 0 1 1h16a1 1 0 0 0 1-1v-5"/></symbol><symbol id="xy-trash" viewBox="0 0 24 24" fill="none" stroke="currentColor" stroke-width="1.65" stroke-linecap="round" stroke-linejoin="round"><path d="M3 6h18M9 6V3h6v3M5 6l1 15h12l1-15M10 10v7m4-7v7"/></symbol><symbol id="xy-link" viewBox="0 0 24 24" fill="none" stroke="currentColor" stroke-width="1.65" stroke-linecap="round" stroke-linejoin="round"><path d="m10 14 4-4m-5.5-.5-2 2a3.2 3.2 0 0 0 4.5 4.5l3-3a3.2 3.2 0 0 0 0-4.5m1 2 2-2A3.2 3.2 0 0 0 12.5 4l-3 3a3.2 3.2 0 0 0 0 4.5"/></symbol><symbol id="xy-message" viewBox="0 0 24 24" fill="none" stroke="currentColor" stroke-width="1.65" stroke-linecap="round" stroke-linejoin="round"><path d="M21 11a9 9 0 0 1-9 9c-1.7 0-3.2-.4-4.5-1.2L3 21l1.2-4.5A9 9 0 1 1 21 11Z"/><circle cx="8" cy="11" r="0.6"/><circle cx="12" cy="11" r="0.6"/><circle cx="16" cy="11" r="0.6"/></symbol><symbol id="xy-stop" viewBox="0 0 24 24" fill="none" stroke="currentColor" stroke-width="1.65" stroke-linecap="round" stroke-linejoin="round"><rect x="5" y="5" width="14" height="14" rx="3"/></symbol><symbol id="xy-align-left" viewBox="0 0 24 24" fill="none" stroke="currentColor" stroke-width="1.65" stroke-linecap="round" stroke-linejoin="round"><path d="M3 5h18M3 10h12M3 15h18M3 20h12"/></symbol><symbol id="xy-play" viewBox="0 0 24 24" fill="none" stroke="currentColor" stroke-width="1.65" stroke-linecap="round" stroke-linejoin="round"><path d="M7 3v18l14-9Z"/></symbol><symbol id="xy-pause" viewBox="0 0 24 24" fill="none" stroke="currentColor" stroke-width="1.65" stroke-linecap="round" stroke-linejoin="round"><rect x="6" y="3" width="3" height="18" rx="1"/><rect x="15" y="3" width="3" height="18" rx="1"/></symbol><symbol id="xy-history" viewBox="0 0 24 24" fill="none" stroke="currentColor" stroke-width="1.65" stroke-linecap="round" stroke-linejoin="round"><path d="M3 10a9 9 0 1 1 1.5 7M3 4v6h6M12 7v5l4 2"/></symbol><symbol id="xy-warning" viewBox="0 0 24 24" fill="none" stroke="currentColor" stroke-width="1.65" stroke-linecap="round" stroke-linejoin="round"><path d="M10 4a2.3 2.3 0 0 1 4 0l8 14a2 2 0 0 1-1.8 3H3.8A2 2 0 0 1 2 18ZM12 8v6"/><circle cx="12" cy="17.5" r="0.6"/></symbol><symbol id="xy-info" viewBox="0 0 24 24" fill="none" stroke="currentColor" stroke-width="1.65" stroke-linecap="round" stroke-linejoin="round"><circle cx="12" cy="12" r="9"/><path d="M12 11v6"/><circle cx="12" cy="7" r="0.6"/></symbol></svg>